<svg xmlns="http://www.w3.org/2000/svg" viewBox="0 0 800 500" role="img" aria-label="Cart checkout and B2B trade">
  <rect width="800" height="500" fill="#f1f5f9"/>
  <defs>
    <linearGradient id="sb" x1="0" y1="0" x2="0" y2="1"><stop offset="0%" stop-color="#0c4a6e"/><stop offset="100%" stop-color="#0f172a"/></linearGradient>
  </defs>
  <rect x="0" y="0" width="200" height="500" fill="url(#sb)"/>
  <rect x="16" y="20" width="100" height="14" rx="3" fill="#22d3ee" opacity=".9"/>
  <rect x="16" y="56" width="168" height="28" rx="6" fill="#0ea5e9" opacity=".35"/>
  <rect x="24" y="64" width="80" height="8" rx="2" fill="#fff"/>
  <rect x="16" y="96" width="168" height="22" rx="4" fill="#1e293b" opacity=".6"/>
  <rect x="16" y="124" width="168" height="22" rx="4" fill="#1e293b" opacity=".6"/>
  <rect x="16" y="152" width="168" height="22" rx="4" fill="#1e293b" opacity=".6"/>
  <rect x="16" y="188" width="120" height="8" rx="2" fill="#64748b"/>
  <rect x="16" y="208" width="168" height="22" rx="4" fill="#1e293b" opacity=".5"/>
  <rect x="16" y="236" width="168" height="22" rx="4" fill="#1e293b" opacity=".5"/>
  <rect x="16" y="280" width="168" height="22" rx="4" fill="#22d3ee" opacity=".25"/>
  <rect x="220" y="16" width="560" height="40" rx="6" fill="#fff" stroke="#e2e8f0"/>
  <rect x="236" y="28" width="280" height="14" rx="3" fill="#0f172a"/>
  <rect x="220" y="68" width="560" height="380" rx="10" fill="#fff" stroke="#e2e8f0"/>
  <rect x="236" y="84" width="260" height="12" rx="2" fill="#0f172a"/>
  <rect x="236" y="112" width="340" height="200" rx="8" fill="#f8fafc" stroke="#e2e8f0"/>
  <rect x="252" y="128" width="200" height="10" rx="2" fill="#0f172a"/>
  <rect x="252" y="148" width="280" height="8" rx="2" fill="#cbd5e1"/>
  <rect x="252" y="164" width="280" height="8" rx="2" fill="#cbd5e1"/>
  <rect x="252" y="188" width="120" height="24" rx="4" fill="#0ea5e9"/>
  <rect x="592" y="112" width="172" height="200" rx="8" fill="#ecfeff" stroke="#22d3ee"/>
  <rect x="608" y="128" width="120" height="10" rx="2" fill="#0f172a"/>
  <rect x="608" y="148" width="100" height="8" rx="2" fill="#64748b"/>
  <rect x="608" y="168" width="100" height="8" rx="2" fill="#64748b"/>
  <rect x="608" y="200" width="130" height="28" rx="6" fill="#22c55e"/>
  <text x="236" y="488" fill="#64748b" font-family="system-ui,sans-serif" font-size="11" font-weight="600">SHOP — Orders → Checkout & trade accounts</text>
</svg>
