<svg xmlns="http://www.w3.org/2000/svg" viewBox="0 0 800 500" role="img" aria-label="AI parts agent chat">
  <rect width="800" height="500" fill="#f1f5f9"/>
  <defs>
    <linearGradient id="sb" x1="0" y1="0" x2="0" y2="1"><stop offset="0%" stop-color="#5a0f16"/><stop offset="100%" stop-color="#171717"/></linearGradient>
  </defs>
  <rect x="0" y="0" width="200" height="500" fill="url(#sb)"/>
  <rect x="16" y="20" width="100" height="14" rx="3" fill="#e11d2a" opacity=".9"/>
  <rect x="16" y="56" width="168" height="28" rx="6" fill="#ef3b47" opacity=".35"/>
  <rect x="24" y="64" width="80" height="8" rx="2" fill="#fff"/>
  <rect x="16" y="96" width="168" height="22" rx="4" fill="#1e293b" opacity=".6"/>
  <rect x="16" y="124" width="168" height="22" rx="4" fill="#1e293b" opacity=".6"/>
  <rect x="16" y="152" width="168" height="22" rx="4" fill="#1e293b" opacity=".6"/>
  <rect x="16" y="188" width="120" height="8" rx="2" fill="#64748b"/>
  <rect x="16" y="208" width="168" height="22" rx="4" fill="#1e293b" opacity=".5"/>
  <rect x="16" y="236" width="168" height="22" rx="4" fill="#1e293b" opacity=".5"/>
  <rect x="16" y="280" width="168" height="22" rx="4" fill="#e11d2a" opacity=".25"/>
  <rect x="220" y="16" width="560" height="40" rx="6" fill="#fff" stroke="#e2e8f0"/>
  <rect x="236" y="28" width="280" height="14" rx="3" fill="#171717"/>
  <rect x="220" y="68" width="560" height="380" rx="10" fill="#fff" stroke="#e2e8f0"/>
  <rect x="236" y="84" width="200" height="12" rx="2" fill="#171717"/>
  <rect x="236" y="112" width="528" height="280" rx="10" fill="#171717" opacity=".04"/>
  <rect x="252" y="128" width="200" height="48" rx="12" fill="#e2e8f0"/>
  <rect x="264" y="144" width="160" height="8" rx="2" fill="#64748b"/>
  <rect x="420" y="188" width="320" height="56" rx="12" fill="#ecfeff" stroke="#e11d2a"/>
  <rect x="436" y="204" width="240" height="8" rx="2" fill="#0e7490"/>
  <rect x="436" y="220" width="180" height="8" rx="2" fill="#64748b"/>
  <rect x="252" y="260" width="240" height="48" rx="12" fill="#e2e8f0"/>
  <rect x="420" y="320" width="320" height="56" rx="12" fill="#ef3b47" opacity=".2"/>
  <rect x="436" y="336" width="200" height="8" rx="2" fill="#171717"/>
  <text x="236" y="488" fill="#64748b" font-family="system-ui,sans-serif" font-size="11" font-weight="600">SHOP — AI Parts Expert → Chat sessions</text>
</svg>
