<svg xmlns="http://www.w3.org/2000/svg" viewBox="0 0 800 500" role="img" aria-label="ERP finance dashboard">
  <rect width="800" height="500" fill="#f1f5f9"/>
  <defs>
    <linearGradient id="sb" x1="0" y1="0" x2="0" y2="1"><stop offset="0%" stop-color="#5a0f16"/><stop offset="100%" stop-color="#171717"/></linearGradient>
  </defs>
  <rect x="0" y="0" width="200" height="500" fill="url(#sb)"/>
  <rect x="16" y="20" width="100" height="14" rx="3" fill="#e11d2a" opacity=".9"/>
  <rect x="16" y="56" width="168" height="28" rx="6" fill="#ef3b47" opacity=".35"/>
  <rect x="24" y="64" width="80" height="8" rx="2" fill="#fff"/>
  <rect x="16" y="96" width="168" height="22" rx="4" fill="#1e293b" opacity=".6"/>
  <rect x="16" y="124" width="168" height="22" rx="4" fill="#1e293b" opacity=".6"/>
  <rect x="16" y="152" width="168" height="22" rx="4" fill="#1e293b" opacity=".6"/>
  <rect x="16" y="188" width="120" height="8" rx="2" fill="#64748b"/>
  <rect x="16" y="208" width="168" height="22" rx="4" fill="#1e293b" opacity=".5"/>
  <rect x="16" y="236" width="168" height="22" rx="4" fill="#1e293b" opacity=".5"/>
  <rect x="16" y="280" width="168" height="22" rx="4" fill="#e11d2a" opacity=".25"/>
  <rect x="220" y="16" width="560" height="40" rx="6" fill="#fff" stroke="#e2e8f0"/>
  <rect x="236" y="28" width="280" height="14" rx="3" fill="#171717"/>
  <rect x="220" y="68" width="270" height="80" rx="10" fill="#fff" stroke="#e2e8f0"/>
  <rect x="236" y="84" width="100" height="10" rx="2" fill="#64748b"/>
  <rect x="236" y="104" width="80" height="20" rx="4" fill="#ef3b47"/>
  <rect x="506" y="68" width="270" height="80" rx="10" fill="#fff" stroke="#e2e8f0"/>
  <rect x="522" y="84" width="100" height="10" rx="2" fill="#64748b"/>
  <rect x="522" y="104" width="80" height="20" rx="4" fill="#22c55e"/>
  <rect x="220" y="164" width="560" height="280" rx="10" fill="#fff" stroke="#e2e8f0"/>
  <rect x="236" y="180" width="200" height="12" rx="2" fill="#171717"/>
  <rect x="236" y="204" width="528" height="28" rx="4" fill="#f8fafc"/>
  <rect x="248" y="214" width="120" height="8" rx="2" fill="#64748b"/>
  <rect x="400" y="214" width="80" height="8" rx="2" fill="#22c55e"/>
  <rect x="236" y="240" width="528" height="28" rx="4" fill="#f8fafc"/>
  <rect x="236" y="276" width="528" height="28" rx="4" fill="#f8fafc"/>
  <rect x="236" y="312" width="200" height="28" rx="6" fill="#ef3b47"/>
  <text x="236" y="488" fill="#64748b" font-family="system-ui,sans-serif" font-size="11" font-weight="600">SHOP — ERP Finance → Dashboard & KPIs</text>
</svg>
