<svg xmlns="http://www.w3.org/2000/svg" viewBox="0 0 800 500" role="img" aria-label="Super CP preview">
  <rect width="800" height="500" fill="#020617"/>
  <rect x="0" y="0" width="220" height="500" fill="#082f49"/>
  <rect x="20" y="24" width="120" height="16" rx="3" fill="#22d3ee"/>
  <text x="20" y="58" fill="#67e8f9" font-family="system-ui,sans-serif" font-size="10" font-weight="700">SUPER CP Ę ECOMAE</text>
  <rect x="16" y="72" width="188" height="32" rx="6" fill="#0ea5e9" opacity=".4"/>
  <rect x="28" y="82" width="100" height="10" rx="2" fill="#fff"/>
  <rect x="16" y="116" width="188" height="24" rx="4" fill="#0c4a6e"/>
  <rect x="16" y="148" width="188" height="24" rx="4" fill="#0c4a6e"/>
  <rect x="16" y="180" width="188" height="24" rx="4" fill="#0c4a6e"/>
  <rect x="16" y="220" width="140" height="8" rx="2" fill="#64748b"/>
  <rect x="16" y="244" width="188" height="24" rx="4" fill="#164e63"/>
  <rect x="240" y="20" width="540" height="48" rx="8" fill="#0f172a" stroke="#1e3a8a"/>
  <rect x="260" y="36" width="220" height="14" rx="3" fill="#e2e8f0"/>
  <rect x="240" y="84" width="260" height="140" rx="10" fill="#0f172a" stroke="#22d3ee" stroke-width="1"/>
  <text x="260" y="110" fill="#22d3ee" font-family="system-ui,sans-serif" font-size="12" font-weight="700">Tenant hub</text>
  <rect x="260" y="124" width="200" height="10" rx="2" fill="#64748b"/>
  <rect x="260" y="148" width="220" height="56" rx="6" fill="#1e293b"/>
  <rect x="520" y="84" width="260" height="140" rx="10" fill="#0f172a" stroke="#334155"/>
  <text x="540" y="110" fill="#94a3b8" font-family="system-ui,sans-serif" font-size="12" font-weight="700">Industry settings</text>
  <rect x="240" y="240" width="540" height="220" rx="10" fill="#0f172a" stroke="#334155"/>
  <rect x="260" y="260" width="500" height="24" rx="4" fill="#1e293b"/>
  <rect x="260" y="292" width="500" height="24" rx="4" fill="#1e293b"/>
  <rect x="260" y="324" width="500" height="24" rx="4" fill="#1e293b"/>
  <rect x="260" y="380" width="160" height="32" rx="6" fill="#0ea5e9"/>
  <text x="260" y="468" fill="#64748b" font-family="system-ui,sans-serif" font-size="11">cp.ecomae.com  onboard clients, DNS, deploy</text>
</svg>
