<svg xmlns="http://www.w3.org/2000/svg" viewBox="0 0 800 500" role="img" aria-label="Storefront preview">
  <defs>
    <linearGradient id="bg" x1="0" y1="0" x2="1" y2="1"><stop offset="0%" stop-color="#141414"/><stop offset="100%" stop-color="#1e3a5f"/></linearGradient>
  </defs>
  <rect width="800" height="500" fill="url(#bg)"/>
  <rect x="0" y="0" width="800" height="52" fill="#0a0a0a" opacity=".9"/>
  <rect x="24" y="16" width="120" height="20" rx="4" fill="#0ea5e9" opacity=".9"/>
  <rect x="520" y="18" width="60" height="16" rx="4" fill="#334155"/>
  <rect x="590" y="18" width="60" height="16" rx="4" fill="#334155"/>
  <rect x="660" y="18" width="60" height="16" rx="4" fill="#0284c7"/>
  <rect x="24" y="72" width="360" height="28" rx="6" fill="#fff" opacity=".95"/>
  <rect x="24" y="108" width="280" height="14" rx="3" fill="#94a3b8"/>
  <rect x="24" y="140" width="140" height="36" rx="8" fill="#0284c7"/>
  <rect x="176" y="140" width="140" height="36" rx="8" fill="transparent" stroke="#0284c7" stroke-width="2"/>
  <g opacity=".95">
    <rect x="24" y="200" width="170" height="120" rx="10" fill="#171717" stroke="#334155"/>
    <rect x="30" y="210" width="158" height="70" rx="6" fill="#1e293b"/>
    <rect x="30" y="290" width="100" height="10" rx="2" fill="#e2e8f0"/>
    <rect x="30" y="306" width="60" height="8" rx="2" fill="#64748b"/>
    <rect x="210" y="200" width="170" height="120" rx="10" fill="#171717" stroke="#334155"/>
    <rect x="216" y="210" width="158" height="70" rx="6" fill="#1e293b"/>
    <rect x="216" y="290" width="100" height="10" rx="2" fill="#e2e8f0"/>
    <rect x="396" y="200" width="170" height="120" rx="10" fill="#171717" stroke="#334155"/>
    <rect x="402" y="210" width="158" height="70" rx="6" fill="#1e293b"/>
    <rect x="586" y="200" width="170" height="120" rx="10" fill="#171717" stroke="#334155"/>
    <rect x="24" y="340" width="752" height="48" rx="8" fill="#171717" stroke="#0ea5e9" stroke-width="1" opacity=".8"/>
    <text x="40" y="370" fill="#0ea5e9" font-family="system-ui,sans-serif" font-size="13" font-weight="700">PUBLIC STOREFRONT</text>
    <text x="200" y="370" fill="#94a3b8" font-family="system-ui,sans-serif" font-size="12">Catalog · Cart · Checkout · Client login</text>
  </g>
</svg>
